<?xml version="1.0" standalone="no"?><!DOCTYPE svg PUBLIC "-//W3C//DTD SVG 1.1//EN" "http://www.w3.org/Graphics/SVG/1.1/DTD/svg11.dtd"><svg class="icon" width="200px" height="200.00px" viewBox="0 0 1024 1024" version="1.1" xmlns="http://www.w3.org/2000/svg"><path d="M666.872277 490.684532c-14.09502-7.019881-45.199435-17.388019-93.15361-31.104415L573.718667 343.532077c20.089547 12.691043 29.916357 28.566616 29.323862 47.682999L743.824903 391.215076c1.348718-61.886489-24.679076-111.081934-77.981049-147.422607-27.214828-18.684548-57.995879-31.862685-92.125187-40.016389l0-80.355119-57.888432 0 0 71.767534c-8.587586-0.591471-17.280572-0.862647-26.191522-0.862647-4.266164 0-8.477069 0.215918-12.691043 0.378623l0-71.28351-57.888432 0 0 77.546144c-34.939767 6.912433-66.422805 19.22383-94.503351 37.046754-50.599422 32.506345-78.301344 76.517721-83.053578 132.033106-6.049786 67.717288 23.652699 117.452016 89.155553 149.258419 13.608949 6.857175 43.093471 16.414855 88.401376 28.621874L419.059238 678.178787c-2.162246-1.080611-4.321422-2.214435-6.373151-3.455705-25.705452-15.500019-40.176025-37.800931-43.579541-66.854641l-144.777361 0c3.348258 68.797899 33.372062 123.122155 90.128717 162.867368 30.996968 21.654182 65.933665 36.668131 104.600313 45.200458l0 77.438697 57.888432 0 0-69.661569c7.506974 0.431835 15.066137 0.7552 22.843264 0.7552 5.455245 0 10.746762-0.323365 16.039301-0.539282l0 69.445652 57.888432 0 0-75.92625c38.180578-7.66661 72.633251-21.546735 103.251595-41.688471 53.353139-35.155684 81.648578-82.514295 85.052095-142.022621C764.720815 570.876945 733.021859 523.193947 666.872277 490.684532zM486.61382 322.30973c10.207479 0 19.926842 0.701988 29.216415 1.943258l0 119.450533c-10.584056-2.861164-21.601994-5.77861-33.319873-8.800433-1.89107-0.487094-3.726881-1.025353-5.562692-1.460258L476.947669 322.740542C480.136292 322.579883 483.265562 322.30973 486.61382 322.30973zM390.385175 371.018082c1.888-14.526855 11.501962-26.028816 28.674063-34.613332l0 75.655074C397.620973 400.12398 388.008035 386.462842 390.385175 371.018082zM495.688499 695.079712c-6.42841 0-12.637832-0.378623-18.739806-0.970094L476.948693 562.830689c11.988032 3.024893 24.623817 6.101975 37.96466 9.342786 0.323365 0.055259 0.64673 0.107447 0.917906 0.215918l0 121.720226C509.349637 694.701089 502.600933 695.079712 495.688499 695.079712zM609.144504 638.162398c-1.998517 16.633842-13.880125 30.187533-35.425837 40.61093l0-86.836741C599.423095 604.790336 611.249445 620.127649 609.144504 638.162398z" /></svg>