<?xml version="1.0" standalone="no"?><!DOCTYPE svg PUBLIC "-//W3C//DTD SVG 1.1//EN" "http://www.w3.org/Graphics/SVG/1.1/DTD/svg11.dtd"><svg class="icon" width="200px" height="200.00px" viewBox="0 0 1024 1024" version="1.1" xmlns="http://www.w3.org/2000/svg"><path d="M616.457978 136.716643l-33.98782 354.788617-42.917063-4.110287 34.016166-354.788617 2.692947-8.560735 40.19577 12.671022z m-40.19577-12.671022l49.862031-88.215259-9.666261 100.886281-40.19577-12.671022z m-229.665818 406.238069l229.665818-406.238069 37.502824 21.20341-229.665818 406.238069-20.806555 10.856826-16.696269-32.060236z m16.696269 32.060236l-33.024029-3.174842 16.32776-28.885394 16.696269 32.060236z m153.32787 14.683646l-153.32787-14.683646 4.110286-42.917063 153.327871 14.711992 19.417562 23.499502-23.527849 19.389215z m4.110287-42.888717l21.458532 2.04097-2.04097 21.458532-19.417562-23.499502z m-57.487321 374.177832l33.987819-354.788617 42.917064 4.110287-34.016167 354.788617-2.692946 8.560735-40.19577-12.671022z m40.19577 12.671022l-49.862031 88.215259 9.666261-100.886281 40.19577 12.671022z m229.665817-406.238069l-229.665817 406.238069-37.502824-21.20341 229.637471-406.238069 20.834902-10.82848 16.696268 32.03189z m-16.696268-32.03189l33.024028 3.146495-16.32776 28.885395-16.696268-32.03189z m-153.356217-14.711992l153.356217 14.711992-4.110287 42.888717-153.356217-14.683646-19.389215-23.527848 23.499502-19.389215z m-4.110287 42.917063l-21.430185-2.069316 2.04097-21.458532 19.389215 23.527848z" fill="#F20018" /></svg>